# xmcd CD database file
#
# Track frame offsets:
#	150
#	19205
#	39635
#	58685
#
# Disc length: 1052 seconds
#
# Revision: 0
# Processed by: cddbd v1.5.1PL0 Copyright (c) Steve Scherf et al.
# Submitted via: CDex 1.51
#
DISCID=2f041a04
DTITLE=as - 僕はずっと
DYEAR=2005
DGENRE=JPop
TTITLE0=僕はずっと
TTITLE1=暁
TTITLE2=僕はずっと -Instrumental-
TTITLE3=暁 -Instrumental-
EXTD=YEAR: 2005
EXTT0=
EXTT1=
EXTT2=
EXTT3=
PLAYORDER=
